<svg width="32" height="32" viewBox="0 0 32 32" xmlns="http://www.w3.org/2000/svg">
  <defs>
    <linearGradient id="eyeGradient" x1="0%" y1="0%" x2="100%" y2="100%">
      <stop offset="0%" style="stop-color:white;stop-opacity:1" />
      <stop offset="100%" style="stop-color:white;stop-opacity:0.85" />
    </linearGradient>
  </defs>
  <style>
    .icon { fill: #2c3e50; }
    .highlight { fill: white; opacity: 0.15; }
    .inner-highlight { fill: white; opacity: 0.08; }
    @media (prefers-color-scheme: dark) {
      .icon { fill: #ecf0f1; }
      .highlight { fill: white; opacity: 0.25; }
      .inner-highlight { fill: white; opacity: 0.12; }
    }
  </style>
  <g class="icon">
    <!-- Base circle -->
    <circle cx="16" cy="16" r="14"/>
    
    <!-- Inner design -->
    <path class="inner-highlight" d="M16 6C11 6 7 10 7 15C7 20 11 24 16 24C21 24 25 20 25 15C25 10 21 6 16 6ZM16 8C20 8 23 11 23 15C23 19 20 22 16 22C12 22 9 19 9 15C9 11 12 8 16 8Z"/>
    
    <!-- Cat ears (more stylized) -->
    <path d="M8 6L12 13L16 6Z"/>
    <path d="M24 6L20 13L16 6Z"/>
    
    <!-- Ear highlights -->
    <path class="highlight" d="M9 7L11.5 11.5L14 7Z"/>
    <path class="highlight" d="M23 7L20.5 11.5L18 7Z"/>
    
    <!-- Eyes with gradient -->
    <circle cx="12" cy="15" r="3.8" fill="url(#eyeGradient)"/>
    <circle cx="20" cy="15" r="3.8" fill="url(#eyeGradient)"/>
    
    <!-- Eye pupils (with personality) -->
    <circle cx="12" cy="15" r="2"/>
    <circle cx="20" cy="15" r="2"/>
    
    <!-- Eye highlights -->
    <circle cx="11" cy="14" r="0.8" class="highlight"/>
    <circle cx="19" cy="14" r="0.8" class="highlight"/>
    <circle cx="12.8" cy="15.8" r="0.4" class="highlight"/>
    <circle cx="20.8" cy="15.8" r="0.4" class="highlight"/>
    
    <!-- Nose (more defined) -->
    <path d="M16 17.5L14 20H18L16 17.5Z"/>
    
    <!-- Whisker dots -->
    <circle cx="13" cy="19" r="0.4" class="highlight"/>
    <circle cx="19" cy="19" r="0.4" class="highlight"/>
  </g>
</svg>