<svg width="32" height="32" viewBox="0 0 32 32" xmlns="http://www.w3.org/2000/svg">
  <style>
    .icon { fill: #2c3e50; }
    .highlight { fill: white; opacity: 0.15; }
    .whiskers { stroke: #2c3e50; }
    @media (prefers-color-scheme: dark) {
      .icon { fill: #ecf0f1; }
      .highlight { fill: white; opacity: 0.25; }
      .whiskers { stroke: #ecf0f1; }
    }
  </style>
  <g class="icon">
    <!-- Cat head -->
    <path d="M16 4
             C11 4 7 7 5 11
             C3 15 3 19 3 21
             C3 25 9 28 16 28
             C23 28 29 25 29 21
             C29 19 29 15 27 11
             C25 7 21 4 16 4Z"/>
    
    <!-- Cat ears -->
    <path d="M7 7L3 2L8 8Z"/>
    <path d="M25 7L29 2L24 8Z"/>
    
    <!-- Cat eyes -->
    <path d="M11 14C9 14 8 15 8 17C8 19 9 20 11 20C13 20 14 19 14 17C14 15 13 14 11 14Z" fill="white"/>
    <path d="M21 14C19 14 18 15 18 17C18 19 19 20 21 20C23 20 24 19 24 17C24 15 23 14 21 14Z" fill="white"/>
    
    <!-- Cat pupils (vertical) -->
    <path d="M11 15C10 15 9.5 16 9.5 17C9.5 18 10 19 11 19C12 19 12.5 18 12.5 17C12.5 16 12 15 11 15Z"/>
    <path d="M21 15C20 15 19.5 16 19.5 17C19.5 18 20 19 21 19C22 19 22.5 18 22.5 17C22.5 16 22 15 21 15Z"/>
    
    <!-- Cat nose -->
    <path d="M15 20L16 21L17 20L16 22Z"/>
    
    <!-- Whiskers -->
    <g class="whiskers" stroke-width="0.5" opacity="0.6">
      <path d="M2 15L8 16"/>
      <path d="M2 17L8 17"/>
      <path d="M2 19L8 18"/>
      <path d="M30 15L24 16"/>
      <path d="M30 17L24 17"/>
      <path d="M30 19L24 18"/>
    </g>
  </g>
</svg>